<svg xmlns="http://www.w3.org/2000/svg" preserveAspectRatio="xMidYMid" width="378" height="44"><path d="M377.735 11.831l-9.84 24.336c-.896 2.208-1.841 3.871-2.832 4.992-.992 1.119-2.136 1.887-3.432 2.304-1.296.415-2.984.624-5.064.624-1.056 0-1.793-.057-2.208-.168-.416-.113-.624-.36-.624-.744v-3.696c0-.513.463-.768 1.392-.768h3.264c.96 0 1.792-.36 2.496-1.08.703-.72 1.056-1.48 1.056-2.28 0-.288-.048-.544-.144-.768l-9.216-22.704c-.065-.192-.096-.32-.096-.384 0-.224.079-.408.24-.552.16-.144.367-.216.624-.216h6.048c.223 0 .439.072.648.216.208.144.343.344.408.6l5.328 14.304c.096.32.223.48.384.48.127 0 .271-.176.432-.528l5.28-14.304c.223-.512.576-.768 1.056-.768h4.128a.75.75 0 0 1 .552.216.69.69 0 0 1 .216.504c0 .064-.032.192-.096.384zm-27.984 5.424c-1.024-.256-2.144-.384-3.36-.384-.8 0-1.608.2-2.424.6-.816.4-1.488.928-2.016 1.584s-.792 1.32-.792 1.992v14.016c0 .736-.416 1.104-1.248 1.104h-5.136c-.672 0-1.008-.32-1.008-.96V11.639c0-.608.256-.912.768-.912h5.616c.512 0 .768.272.768.816v2.832c0 .128.032.224.096.288.064.064.128.096.192.096.096 0 .224-.08.384-.24a11.815 11.815 0 0 1 3.408-3.096c1.312-.784 2.56-1.176 3.744-1.176 1.152 0 1.728.272 1.728.816v5.568c0 .224-.064.4-.192.528s-.304.16-.528.096zm-26.304 17.712c-1.952 1.12-4.192 1.68-6.72 1.68-2.528 0-4.76-.552-6.696-1.656-1.936-1.104-3.448-2.648-4.536-4.632-1.088-1.984-1.632-4.24-1.632-6.768 0-2.624.552-4.944 1.656-6.96 1.104-2.016 2.64-3.584 4.608-4.704 1.968-1.12 4.184-1.68 6.648-1.68 2.528 0 4.768.568 6.72 1.704 1.952 1.136 3.464 2.712 4.536 4.728 1.072 2.016 1.608 4.304 1.608 6.864 0 2.528-.544 4.784-1.632 6.768a11.816 11.816 0 0 1-4.56 4.656zm-2.664-17.832c-.912-1.424-2.248-2.136-4.008-2.136-1.76 0-3.104.712-4.032 2.136-.928 1.424-1.392 3.528-1.392 6.312 0 2.72.464 4.784 1.392 6.192.928 1.408 2.272 2.112 4.032 2.112 1.76 0 3.096-.696 4.008-2.088.912-1.392 1.368-3.464 1.368-6.216 0-2.784-.456-4.888-1.368-6.312zm-19.896-1.32h-5.088c-.352 0-.528.192-.528.576v11.568c0 1.088.256 1.864.769 2.328.511.464 1.327.696 2.447.696h2.592c.224 0 .4.072.528.216.128.144.192.344.192.6l-.048 2.928c0 .64-.352 1.024-1.056 1.152-1.344.192-3.248.288-5.711.288-2.241 0-3.985-.528-5.233-1.584-1.248-1.056-1.872-2.592-1.872-4.608v-13.44c0-.48-.208-.72-.624-.72h-2.928c-.608 0-.912-.272-.912-.816v-3.552c0-.48.288-.72.864-.72h3.312c.256 0 .416-.176.48-.528l.672-7.296c.064-.544.304-.816.72-.816h5.232a.71.71 0 0 1 .552.24c.144.16.216.384.216.672v7.2c0 .32.16.48.48.48h5.041c.575 0 .863.256.863.768v3.552c0 .544-.32.816-.96.816zm-21.695 20.352h-4.944c-.32 0-.552-.112-.696-.336-.144-.224-.248-.56-.312-1.008l-.048-1.056c-.032-.288-.16-.432-.384-.432-.128 0-.368.128-.72.384-2.112 1.952-4.624 2.928-7.536 2.928-2.4 0-4.304-.648-5.712-1.944-1.408-1.296-2.112-2.984-2.112-5.064 0-2.688 1.232-4.848 3.696-6.48 2.464-1.632 5.856-2.496 10.176-2.592l1.728-.144c.192 0 .36-.056.504-.168.144-.112.216-.28.216-.504v-1.008c0-1.248-.352-2.208-1.056-2.88-.704-.672-1.712-1.008-3.024-1.008-2.24 0-3.904.96-4.992 2.88-.128.32-.336.48-.624.48-.16 0-.304-.016-.432-.048l-4.8-1.104c-.288-.064-.432-.24-.432-.528 0-.192.064-.432.192-.72.768-1.856 2.136-3.248 4.104-4.176 1.968-.928 4.408-1.392 7.32-1.392 3.808 0 6.56.696 8.256 2.088 1.696 1.392 2.544 3.368 2.544 5.928v16.848c0 .384-.064.656-.192.816-.128.16-.368.24-.72.24zm-6.144-11.328c0-.288-.048-.496-.144-.624-.096-.128-.288-.192-.576-.192l-1.344.096c-1.856.096-3.496.536-4.92 1.32s-2.136 1.864-2.136 3.24c0 .96.336 1.72 1.008 2.28.672.56 1.6.84 2.784.84 1.472 0 2.72-.432 3.744-1.296 1.056-.832 1.584-1.68 1.584-2.544v-3.12zm-19.104-7.584c-1.025-.256-2.145-.384-3.36-.384-.801 0-1.608.2-2.424.6-.816.4-1.488.928-2.016 1.584s-.792 1.32-.792 1.992v14.016c0 .736-.417 1.104-1.248 1.104h-5.136c-.672 0-1.008-.32-1.008-.96V11.639c0-.608.255-.912.768-.912h5.616c.511 0 .768.272.768.816v2.832c0 .128.031.224.096.288.063.064.127.096.192.096.096 0 .223-.08.384-.24a11.802 11.802 0 0 1 3.408-3.096c1.311-.784 2.559-1.176 3.744-1.176 1.152 0 1.728.272 1.728.816v5.568c0 .224-.065.4-.192.528-.129.128-.305.16-.528.096zM227.64 34.967c-1.952 1.12-4.193 1.68-6.72 1.68-2.528 0-4.76-.552-6.696-1.656-1.937-1.104-3.449-2.648-4.536-4.632-1.088-1.984-1.632-4.24-1.632-6.768 0-2.624.552-4.944 1.656-6.96 1.104-2.016 2.64-3.584 4.608-4.704 1.968-1.12 4.183-1.68 6.648-1.68 2.527 0 4.768.568 6.72 1.704 1.951 1.136 3.463 2.712 4.536 4.728 1.072 2.016 1.608 4.304 1.608 6.864 0 2.528-.545 4.784-1.632 6.768a11.823 11.823 0 0 1-4.56 4.656zm-2.664-17.832c-.912-1.424-2.249-2.136-4.008-2.136-1.76 0-3.104.712-4.032 2.136-.929 1.424-1.392 3.528-1.392 6.312 0 2.72.463 4.784 1.392 6.192.928 1.408 2.272 2.112 4.032 2.112 1.759 0 3.096-.696 4.008-2.088.912-1.392 1.368-3.464 1.368-6.216 0-2.784-.456-4.888-1.368-6.312zM194.04 36.647c-1.632 0-3.096-.369-4.392-1.104-1.296-.736-2.36-1.664-3.192-2.784-.16-.16-.272-.24-.336-.24-.096 0-.176.128-.24.384l-.576 2.304c-.096.352-.224.6-.384.744-.16.144-.4.216-.72.216h-3.12c-.384 0-.664-.088-.84-.264-.176-.176-.264-.44-.264-.792V1.463c0-.288.072-.512.216-.672.144-.16.344-.24.6-.24h5.856c.48 0 .72.288.72.864v11.184c0 .384.112.576.336.576.128 0 .304-.08.528-.24 1.92-1.792 4.16-2.688 6.72-2.688 3.2 0 5.672 1.184 7.416 3.552 1.744 2.368 2.616 5.536 2.616 9.504 0 4.128-.96 7.384-2.88 9.768-1.92 2.384-4.608 3.576-8.064 3.576zm2.136-19.656c-.848-1.36-2.12-2.04-3.816-2.04-1.92 0-3.584.848-4.992 2.544v9.888c0 1.376.472 2.512 1.416 3.408.944.896 2.072 1.344 3.384 1.344 3.52 0 5.28-2.912 5.28-8.736 0-2.912-.424-5.048-1.272-6.408zm-22.103 19.176h-4.944c-.321 0-.552-.112-.696-.336-.144-.224-.249-.56-.312-1.008l-.048-1.056c-.033-.288-.161-.432-.384-.432-.129 0-.369.128-.72.384-2.112 1.952-4.625 2.928-7.536 2.928-2.4 0-4.305-.648-5.712-1.944-1.409-1.296-2.112-2.984-2.112-5.064 0-2.688 1.231-4.848 3.696-6.48 2.463-1.632 5.856-2.496 10.176-2.592l1.728-.144c.192 0 .36-.056.504-.168.144-.112.216-.28.216-.504v-1.008c0-1.248-.353-2.208-1.056-2.88-.705-.672-1.713-1.008-3.024-1.008-2.241 0-3.905.96-4.992 2.88-.129.32-.336.48-.624.48-.161 0-.305-.016-.432-.048l-4.8-1.104c-.288-.064-.432-.24-.432-.528 0-.192.063-.432.192-.72.768-1.856 2.136-3.248 4.104-4.176 1.968-.928 4.407-1.392 7.32-1.392 3.807 0 6.559.696 8.256 2.088 1.695 1.392 2.544 3.368 2.544 5.928v16.848c0 .384-.065.656-.192.816-.129.16-.369.24-.72.24zm-6.144-11.328c0-.288-.048-.496-.144-.624-.096-.128-.288-.192-.576-.192l-1.344.096c-1.857.096-3.497.536-4.92 1.32-1.425.784-2.136 1.864-2.136 3.24 0 .96.336 1.72 1.008 2.28.672.56 1.599.84 2.784.84 1.471 0 2.719-.432 3.744-1.296 1.056-.832 1.584-1.68 1.584-2.544v-3.12zm-20.16 11.328h-23.136c-.384 0-.657-.08-.816-.24-.161-.16-.24-.416-.24-.768V1.463c0-.608.255-.912.768-.912h6.864c.511 0 .768.288.768.864v27.984c0 .224.039.384.12.48.079.096.216.144.408.144h15.312c.576 0 .864.24.864.72v4.56a.848.848 0 0 1-.24.624c-.161.16-.384.24-.672.24zm-41.424 0h-5.088c-.384 0-.656-.08-.816-.24-.16-.16-.24-.416-.24-.768l.144-33.696c0-.608.256-.912.768-.912h5.808c.48 0 .72.288.72.864v33.6c0 .416-.096.712-.288.888-.192.176-.528.264-1.008.264zm-12.335 0h-5.328c-.353 0-.593-.072-.72-.216-.128-.144-.192-.392-.192-.744V18.983c0-1.056-.288-1.888-.864-2.496-.576-.608-1.392-.912-2.448-.912-.864 0-1.704.24-2.52.72a8.19 8.19 0 0 0-2.088 1.728 2.4 2.4 0 0 0-.408.624 1.88 1.88 0 0 0-.12.72v15.648c0 .768-.384 1.152-1.152 1.152h-5.28c-.32 0-.552-.072-.696-.216-.144-.144-.216-.392-.216-.744V18.983c0-1.056-.288-1.888-.864-2.496-.576-.608-1.409-.912-2.496-.912-.929 0-1.793.24-2.592.72-.8.48-1.649 1.232-2.544 2.256v16.512c0 .384-.096.664-.288.84-.192.176-.512.264-.96.264h-5.136c-.353 0-.608-.072-.768-.216-.161-.144-.24-.392-.24-.744V11.639c0-.288.072-.512.216-.672a.71.71 0 0 1 .552-.24h5.76c.48 0 .72.272.72.816v2.352c0 .256.079.384.24.384.096 0 .208-.064.336-.192 1.344-1.248 2.656-2.208 3.936-2.88a8.65 8.65 0 0 1 4.08-1.008c1.696 0 3.136.4 4.32 1.2 1.183.8 2.016 1.888 2.496 3.264.031.128.096.192.192.192.127 0 .271-.08.432-.24a14.835 14.835 0 0 1 4.008-3.168c1.488-.8 2.968-1.2 4.44-1.2 2.239 0 4.024.688 5.352 2.064 1.327 1.376 1.992 3.264 1.992 5.664v17.04c0 .768-.384 1.152-1.152 1.152zM51.146 15.815h-5.088c-.352 0-.528.192-.528.576v11.568c0 1.088.256 1.864.768 2.328.512.464 1.328.696 2.448.696h2.592c.224 0 .4.072.528.216.128.144.192.344.192.6l-.048 2.928c0 .64-.352 1.024-1.056 1.152-1.344.192-3.248.288-5.712.288-2.24 0-3.984-.528-5.232-1.584-1.248-1.056-1.872-2.592-1.872-4.608v-13.44c0-.48-.208-.72-.624-.72h-2.928c-.608 0-.912-.272-.912-.816v-3.552c0-.48.288-.72.864-.72h3.312c.256 0 .416-.176.48-.528l.672-7.296c.064-.544.304-.816.72-.816h5.232a.71.71 0 0 1 .552.24c.144.16.216.384.216.672v7.2c0 .32.16.48.48.48h5.04c.576 0 .864.256.864.768v3.552c0 .544-.32.816-.96.816zM28.347 36.167h-6.096c-.449 0-.768-.08-.96-.24-.192-.16-.288-.448-.288-.864V21.575a.62.62 0 0 0-.168-.456c-.113-.112-.281-.168-.504-.168H9.051a.573.573 0 0 0-.456.192.634.634 0 0 0-.168.432v13.488c0 .384-.105.664-.312.84-.209.176-.537.264-.984.264H1.083c-.384 0-.657-.08-.816-.24-.161-.16-.24-.416-.24-.768V1.463c0-.608.255-.912.768-.912h6.864c.511 0 .768.288.768.864v12.288c0 .544.24.816.72.816h11.088c.511 0 .768-.256.768-.768V1.415c0-.576.24-.864.72-.864h6.864c.543 0 .816.304.816.912v33.696c0 .672-.353 1.008-1.056 1.008z" fill="#111" fill-rule="evenodd"/></svg>