<svg xmlns="http://www.w3.org/2000/svg" preserveAspectRatio="xMidYMid" width="300" height="300"><path fill="#680068" fill-rule="evenodd" d="M286.372 158.602l-2.165-.126.16-2.749-6.297-.366c-.927-.054-1.562.073-1.904.382-.342.309-.531.779-.568 1.411-.017.296.009.654.078 1.073l-2.094-.122c-.193-.841-.277-1.499-.249-1.975.066-1.131.277-1.999.633-2.604.356-.606.818-1.048 1.386-1.328s1.386-.389 2.455-.327l6.762.393.083-1.439 2.165.126-.084 1.439 2.164.126.197 3.486-2.562-.149-.16 2.749zm-.797-12.77c-.524.471-1.324.73-2.402.774l-5.69.237c-.695.029-1.116.154-1.263.375-.147.221-.216.437-.208.648.006.124.028.28.067.466l-1.94.163c-.249-.725-.386-1.372-.41-1.942-.026-.64.058-1.197.254-1.67.195-.473.631-.849 1.307-1.128l-.006-.152c-.505-.479-.87-.898-1.096-1.256a4.723 4.723 0 0 1-.733-2.386c-.047-1.147.272-2.081.957-2.802.686-.72 1.547-1.102 2.586-1.145 1.264-.053 2.341.42 3.231 1.42.89.999 1.383 2.657 1.48 4.976l.038.925 1.171-.049c.788-.033 1.31-.274 1.565-.722.255-.449.369-1.008.341-1.68-.055-1.327-.494-2.665-1.316-4.015l2.388-.099c.658 1.544 1.02 3.093 1.085 4.646.039.953-.054 1.809-.281 2.569-.226.76-.601 1.376-1.125 1.847zm-5.852-3.234c-.047-1.132-.283-1.967-.708-2.504-.426-.538-.939-.794-1.54-.769-.491.02-.888.205-1.19.554a1.664 1.664 0 0 0-.425 1.202c.016.406.133.814.349 1.223.217.409.529.817.937 1.222l2.611-.109-.034-.819zm2.865-11.349l-9.078 1.875-.673-3.259 7.974-1.648c.942-.194 1.52-.471 1.733-.829.214-.359.282-.725.205-1.099-.106-.511-.395-.978-.868-1.402-.472-.424-1.125-.8-1.96-1.129l-8.004 1.654-.673-3.26 7.965-1.645c.933-.193 1.511-.466 1.733-.819.222-.353.291-.736.205-1.149-.102-.497-.387-.955-.855-1.373-.467-.418-1.122-.791-1.964-1.12l-8.004 1.654-.673-3.26 12.601-2.603.673 3.259-2.375.491a5.993 5.993 0 0 1 2.253 1.294c.649.592 1.078 1.393 1.286 2.402.127.613.143 1.164.049 1.654-.095.49-.306.95-.636 1.382-.33.431-.783.758-1.359.98 1.078.431 1.89.926 2.437 1.486.546.561.915 1.303 1.106 2.227.211 1.024.083 1.917-.386 2.679-.469.762-1.373 1.281-2.712 1.558zm-4.843-24.143a3.498 3.498 0 0 0-1.136-1.58c-.52-.409-1.186-.697-1.997-.865l-7.667 2.814-1.196-3.256 12.079-4.434 1.196 3.256-2.277.836a5.128 5.128 0 0 1 2.444.913 4.152 4.152 0 0 1 1.521 2.001c.073.198.125.407.156.629l-2.904 1.066a3.942 3.942 0 0 0-.219-1.38zm-7.334-8.756c-1.155.573-2.321.86-3.498.861-1.178.001-2.231-.324-3.161-.974-.929-.651-1.705-1.602-2.327-2.855-.619-1.245-.907-2.434-.864-3.568.043-1.134.42-2.17 1.132-3.108.711-.938 1.644-1.694 2.798-2.267 1.148-.57 2.307-.859 3.477-.864 1.171-.006 2.225.316 3.163.966.938.651 1.719 1.602 2.341 2.854.626 1.26.914 2.458.864 3.595-.05 1.137-.43 2.172-1.14 3.105-.71.933-1.638 1.685-2.785 2.255zm1.12-7.99c-.435-.874-1.151-1.341-2.148-1.399-.998-.058-2.08.203-3.249.783-1.175.584-2.039 1.291-2.591 2.119-.553.829-.612 1.68-.177 2.555.438.881 1.154 1.352 2.148 1.412.994.06 2.078-.202 3.254-.786 1.168-.581 2.03-1.286 2.586-2.116.556-.83.615-1.686.177-2.568zm-.348-12.447c-.193-.312-.419-.542-.679-.69-.26-.147-.575-.196-.944-.148-.37.048-.91.291-1.622.729l-.899.552 1.706 2.776-1.846 1.135-1.707-2.775-9.114 5.604-1.817-2.955 9.115-5.604-.927-1.507 1.847-1.136.926 1.507.789-.484c1.531-.942 2.84-1.263 3.927-.964 1.087.3 2.028 1.095 2.821 2.386.536.871.962 1.848 1.278 2.928l-1.996 1.228c-.163-1.055-.449-1.916-.858-2.582zm-12.062-5.076l-7.288 5.439-2.075-2.78 6.603-4.928c.563-.42.906-.757 1.03-1.01.123-.253.17-.507.14-.762a1.462 1.462 0 0 0-.29-.712c-.285-.382-.709-.685-1.271-.909-.562-.224-1.392-.302-2.491-.232l-6.489 4.843-2.075-2.78 10.312-7.696 2.075 2.78-1.944 1.451c1.168-.093 2.144.042 2.926.404.782.362 1.407.856 1.874 1.482.607.814.868 1.709.782 2.685-.086.975-.692 1.883-1.819 2.725zm-8.203-19.704l2.158-1.93 2.312 2.585-2.157 1.93-2.313-2.585zm-8.892 12.609l-2.313-2.585 9.59-8.579 2.312 2.585-9.589 8.579zm3.784 184.527l-1.619-1.807c.195.874.201 1.74.015 2.599-.185.858-.662 1.632-1.43 2.32-.465.417-.933.708-1.404.873a3.27 3.27 0 0 1-1.515.145c-.538-.068-1.048-.295-1.531-.681.17 1.148.151 2.1-.059 2.854-.209.754-.665 1.446-1.368 2.076-.778.697-1.615 1.035-2.509 1.013-.895-.022-1.798-.542-2.711-1.56l-6.186-6.903 2.479-2.221 5.433 6.063c.642.717 1.172 1.077 1.589 1.081.417.004.768-.121 1.052-.376.389-.348.648-.833.776-1.454.129-.622.126-1.376-.01-2.262l-5.454-6.087 2.478-2.221 5.428 6.057c.636.709 1.163 1.072 1.579 1.086.417.015.783-.119 1.097-.4.378-.339.631-.816.757-1.43s.119-1.368-.02-2.261l-5.455-6.086 2.479-2.222 8.587 9.583-2.478 2.221zM229.354 45.65c-.493.718-.778 1.369-.855 1.955a3.403 3.403 0 0 0 .222 1.727c.226.566.684 1.135 1.376 1.708.89.735 2.064 1.356 3.524 1.863l-1.553 1.879c-1.572-.671-2.923-1.474-4.054-2.409-1.072-.886-1.844-1.861-2.318-2.927s-.576-2.204-.305-3.415c.27-1.211.819-2.316 1.645-3.316.767-.927 1.659-1.631 2.676-2.113a5.687 5.687 0 0 1 3.146-.532c1.079.127 2.133.616 3.162 1.467 1.263 1.044 1.938 2.281 2.025 3.711.087 1.431-.778 3.245-2.595 5.442l-6.096-5.04zm5.199-2.513c-.517-.428-1.12-.564-1.809-.408-.689.155-1.418.614-2.188 1.376l3.513 2.904c.751-.909 1.139-1.683 1.162-2.323.024-.639-.202-1.156-.678-1.549zm-19.953-.854l2.801-13.487 3.074 1.97-1.968 9.761 8.022-5.883 2.111 1.353-11.121 8.156-2.919-1.87zm-2.776-18.72l1.319-2.577 3.088 1.581-1.319 2.576-3.088-1.58zm-3.762 14.965l-3.088-1.581 5.863-11.454 3.087 1.58-5.862 11.455zm-1.956-12.925l-2.542-1.062-2.431 5.821c-.357.857-.447 1.498-.269 1.923.178.425.559.76 1.142 1.004.274.114.62.208 1.039.281l-.809 1.935c-.857-.095-1.506-.235-1.946-.419-1.045-.436-1.794-.923-2.247-1.459-.454-.537-.718-1.119-.794-1.748-.077-.628.092-1.436.504-2.424l2.611-6.25-1.33-.556.835-2 1.33.555.836-2 3.354.969-.989 2.368 2.541 1.061-.835 2.001zm-12.685-9.435l.905-2.749 3.295 1.085-.906 2.749-3.294-1.085zm-1.41 15.365l-3.295-1.085 4.026-12.221 3.295 1.085-4.026 12.221zM190 272.364c.31 1.227.067 2.378-.729 3.454-.796 1.075-2.319 1.897-4.568 2.465l-.898.227.287 1.136c.193.765.536 1.226 1.027 1.384.491.158 1.062.155 1.714-.009 1.287-.326 2.508-1.029 3.661-2.11l.585 2.318c-1.377.96-2.819 1.631-4.326 2.011-.924.234-1.781.318-2.572.251-.79-.066-1.469-.307-2.038-.724-.569-.416-.985-1.147-1.249-2.192l-1.395-5.522c-.17-.674-.379-1.061-.625-1.16-.247-.099-.472-.122-.677-.07a2.9 2.9 0 0 0-.443.16l-.556-1.866c.659-.392 1.264-.658 1.817-.798.621-.156 1.184-.188 1.687-.093.503.094.96.444 1.371 1.049l.148-.037c.366-.592.701-1.035 1.005-1.33.305-.294.637-.541.998-.741.36-.2.756-.354 1.188-.464 1.113-.281 2.093-.16 2.938.364.846.524 1.396 1.289 1.65 2.297zm-3.143 1.144c-.121-.477-.383-.828-.786-1.052a1.668 1.668 0 0 0-1.264-.17 2.85 2.85 0 0 0-1.125.592 5.103 5.103 0 0 0-1.005 1.167l.64 2.533.795-.201c1.099-.277 1.868-.679 2.307-1.205.439-.526.585-1.08.438-1.664zm-3.668-255.944c-.701-.16-1.254-.16-1.659 0s-.651.43-.738.811a1.11 1.11 0 0 0 .163.867c.168.279.521.595 1.057.95l.896.602c1.481.988 2.407 1.828 2.777 2.522.361.7.449 1.457.263 2.272-.242 1.058-.909 1.882-2.001 2.469-1.092.588-2.507.684-4.243.287-1.478-.338-2.934-.911-4.367-1.719l.566-2.479c1.515 1.083 2.867 1.761 4.055 2.032.632.145 1.168.127 1.606-.054.437-.18.703-.476.797-.887.082-.358.01-.691-.216-.999-.228-.301-.605-.631-1.132-.992l-1.038-.718c-1.072-.742-1.825-1.463-2.258-2.163-.435-.693-.549-1.492-.342-2.398.249-1.089.879-1.891 1.89-2.405 1.011-.514 2.389-.572 4.133-.174 1.021.234 2.201.66 3.543 1.279l-.544 2.376c-1.247-.782-2.317-1.275-3.208-1.479zm-7.811 266.208c-.789 1.418-2.037 2.242-3.745 2.471a5.216 5.216 0 0 1-1.265.028 4.231 4.231 0 0 1-1.143-.29c-.373-.151-.837-.429-1.393-.836l-.186 1.338-3.079.413-1.306-9.733c-.345-2.571-.329-4.335.048-5.292.376-.957 1.044-1.73 2.003-2.32.959-.59 2.1-.974 3.424-1.151 1.478-.198 3.111-.11 4.901.264l.056 2.535c-1.493-.462-2.874-.608-4.142-.437-1.191.159-2.053.531-2.585 1.115-.531.584-.711 1.522-.537 2.815l.234 1.742a4.975 4.975 0 0 1 1.343-2.202c.636-.605 1.438-.973 2.407-1.103.985-.132 1.884-.001 2.697.395.813.395 1.486 1.063 2.019 2.005.534.941.883 2.023 1.047 3.247.257 1.912-.009 3.578-.798 4.996zm-2.839-4.343c-.155-1.153-.481-2.034-.98-2.641-.499-.607-1.131-.859-1.897-.756-.552.074-1.054.311-1.507.711-.453.399-.861.962-1.224 1.689l.631 4.704c.565.492 1.069.804 1.512.938.443.134.86.174 1.251.122.85-.114 1.477-.6 1.88-1.458.404-.859.515-1.961.334-3.309zm-1.093-253.077l-3.452-.343.813-8.198c.069-.699.052-1.18-.051-1.441a1.353 1.353 0 0 0-.469-.618 1.46 1.46 0 0 0-.721-.266c-.475-.047-.984.061-1.528.325-.545.264-1.162.826-1.851 1.683l-.799 8.059-3.452-.343 1.27-12.804 3.452.342-.24 2.414c.72-.925 1.477-1.555 2.272-1.888.794-.334 1.58-.462 2.358-.385 1.01.1 1.847.511 2.51 1.232.662.722.924 1.782.785 3.181l-.897 9.05zm-14.297 260.387c-.898.61-2.016.931-3.351.961-1.638.037-2.958-.457-3.96-1.481-1.002-1.025-1.535-2.963-1.599-5.813l7.908-.179c-.097-.866-.308-1.545-.633-2.037a3.41 3.41 0 0 0-1.298-1.161c-.541-.28-1.26-.411-2.159-.39-1.153.026-2.448.325-3.883.896l-.055-2.437c1.627-.521 3.174-.798 4.641-.831 1.39-.032 2.613.2 3.669.696 1.055.496 1.877 1.29 2.465 2.382a7.822 7.822 0 0 1 .926 3.584c.027 1.203-.186 2.319-.641 3.349a5.676 5.676 0 0 1-2.03 2.461zm-5.457-4.454c.027 1.179.241 2.018.642 2.517.401.499.91.742 1.526.728.671-.015 1.216-.307 1.636-.875.419-.569.67-1.393.754-2.473l-4.558.103zm-3.753-257.471c-1.058-.493-1.882-1.285-2.472-2.376-.591-1.091-.903-2.285-.936-3.581-.03-1.203.181-2.32.632-3.351.452-1.031 1.126-1.853 2.024-2.466.897-.613 2.013-.936 3.348-.97 1.638-.041 2.959.449 3.964 1.471s1.543 2.958 1.615 5.809l-7.908.199c.099.865.312 1.544.638 2.036a3.42 3.42 0 0 0 1.302 1.157c.542.279 1.261.407 2.159.385 1.154-.029 2.447-.332 3.881-.907l.062 2.437c-1.626.525-3.172.807-4.639.844-1.39.035-2.613-.194-3.67-.687zm4.717-7.335c-.03-1.179-.246-2.017-.648-2.515-.403-.498-.912-.739-1.529-.724-.671.017-1.215.311-1.633.88-.418.569-.667 1.394-.748 2.474l4.558-.115zm-15.984 9.201c-1.502.205-3.067.182-4.694-.068l-.344-2.52c1.8.48 3.304.637 4.511.471.643-.088 1.137-.293 1.483-.616.346-.324.491-.694.434-1.112a1.18 1.18 0 0 0-.555-.859c-.32-.201-.789-.377-1.409-.529l-1.225-.305c-1.265-.316-2.224-.725-2.876-1.227-.652-.494-1.04-1.202-1.166-2.123-.152-1.107.155-2.08.92-2.918.764-.838 2.033-1.378 3.805-1.62 1.037-.142 2.293-.16 3.766-.054l.33 2.415c-1.443-.292-2.618-.375-3.523-.251-.712.097-1.23.292-1.552.584-.323.293-.458.633-.405 1.02.041.302.194.553.458.753.256.202.697.374 1.324.517l1.051.246c1.735.402 2.898.862 3.489 1.38.585.528.934 1.205 1.047 2.033.147 1.076-.187 2.082-1.001 3.017-.814.936-2.104 1.524-3.868 1.766zm-4.464 246.37c1.125.137 1.978.402 2.559.795.582.393.995.882 1.239 1.467.244.584.301 1.407.172 2.47l-.817 6.724 1.431.174-.261 2.152-1.431-.174-.262 2.152-3.491-.022.309-2.548-2.734-.332.262-2.152 2.734.332.76-6.262c.112-.922.025-1.563-.262-1.924-.286-.361-.744-.58-1.372-.656a4.943 4.943 0 0 0-1.076.011l.253-2.082c.852-.141 1.514-.183 1.987-.125zm-12.38 16.958l1.723-7.877c-.823.836-1.648 1.373-2.476 1.612-.828.239-1.623.275-2.387.108-.992-.217-1.775-.722-2.349-1.515-.575-.794-.711-1.877-.411-3.251l1.943-8.884 3.388.741-1.76 8.048c-.15.687-.189 1.166-.116 1.438.072.272.204.495.394.668.19.174.418.29.685.348.466.102.984.053 1.556-.146.571-.199 1.249-.684 2.033-1.456l1.73-7.911 3.389.741-3.953 18.077-3.389-.741zm-3.467-269.281c-.44.494-.77 1.14-.989 1.938l2.326 7.83-3.325.988-3.665-12.335 3.326-.987.69 2.325c.161-.912.516-1.706 1.065-2.382a4.15 4.15 0 0 1 2.093-1.392 3.05 3.05 0 0 1 .638-.116l.881 2.965a3.96 3.96 0 0 0-1.391.132 3.5 3.5 0 0 0-1.649 1.034zm-13.662 11.166a3.396 3.396 0 0 0 1.623.631c.605.073 1.324-.058 2.158-.392 1.071-.429 2.178-1.164 3.322-2.203l.907 2.263c-1.341 1.059-2.692 1.862-4.054 2.408-1.291.517-2.517.729-3.68.635-1.162-.093-2.211-.548-3.145-1.365-.934-.816-1.642-1.826-2.125-3.03-.447-1.117-.639-2.237-.576-3.361a5.683 5.683 0 0 1 1.037-3.017c.628-.887 1.561-1.579 2.801-2.076 1.521-.61 2.93-.611 4.227-.003 1.298.607 2.478 2.235 3.539 4.881l-7.342 2.944c.395.776.831 1.338 1.308 1.685zm2.141-5.176c-.439-1.095-.934-1.806-1.485-2.132-.55-.326-1.112-.375-1.685-.145-.623.25-1.03.714-1.224 1.393-.193.68-.139 1.54.162 2.58l4.232-1.696zm-6.459 10.996c-.631.589-1.159.991-1.584 1.206-1.012.51-1.869.762-2.571.758-.702-.005-1.317-.183-1.844-.534-.527-.351-1.031-1.004-1.513-1.96l-3.05-6.048-1.287.649-.976-1.936 1.287-.649-.976-1.935 2.918-1.918 1.155 2.292 2.459-1.24.976 1.935-2.459 1.24 2.84 5.633c.419.829.847 1.314 1.286 1.455.438.142.94.07 1.505-.215.265-.134.562-.336.889-.606l.945 1.873zm-12.564 6.818l-4.355-6.993c-.372-.596-.679-.967-.92-1.111a1.349 1.349 0 0 0-.748-.203 1.448 1.448 0 0 0-.734.229c-.405.252-.742.648-1.013 1.19-.27.541-.417 1.362-.44 2.462l4.281 6.873-2.944 1.834-6.803-10.921 2.944-1.834 1.283 2.059c.006-1.173.222-2.134.648-2.882.427-.749.971-1.33 1.635-1.743.862-.537 1.775-.722 2.74-.554.965.167 1.819.848 2.563 2.041l4.808 7.719-2.945 1.834zm-19.632 6.694c.593.637 1.166 1.057 1.721 1.26a3.39 3.39 0 0 0 1.734.159c.602-.096 1.257-.419 1.967-.97.911-.708 1.773-1.719 2.586-3.033l1.495 1.926c-.997 1.387-2.075 2.531-3.234 3.431-1.098.852-2.219 1.394-3.362 1.624-1.144.23-2.277.081-3.4-.447-1.122-.527-2.081-1.304-2.877-2.328-.737-.95-1.231-1.975-1.479-3.073a5.673 5.673 0 0 1 .167-3.185c.359-1.026 1.066-1.948 2.121-2.767 1.294-1.005 2.648-1.394 4.063-1.167 1.415.227 2.997 1.466 4.746 3.719l-6.248 4.851zm.34-5.947c-.619-.162-1.172-.054-1.66.325-.53.411-.794.97-.793 1.676.002.706.29 1.518.866 2.436l3.601-2.796c-.723-.931-1.395-1.478-2.014-1.641zM62.47 251.002c-.871-1.553-1.314-2.723-1.329-3.509-.003-.787.263-1.501.799-2.143.696-.833 1.665-1.263 2.905-1.291 1.24-.027 2.543.53 3.909 1.673 1.163.972 2.2 2.144 3.11 3.515l-1.631 1.952c-.858-1.654-1.754-2.872-2.689-3.654-.498-.416-.983-.643-1.455-.681-.472-.038-.843.105-1.114.428a1.18 1.18 0 0 0-.261.989c.067.371.253.837.558 1.397l.598 1.112c.619 1.148.962 2.132 1.029 2.953.073.814-.189 1.578-.785 2.291-.716.857-1.642 1.285-2.776 1.284-1.135-.001-2.388-.576-3.761-1.723-.803-.672-1.661-1.588-2.575-2.749l1.564-1.87c.756 1.264 1.485 2.189 2.186 2.775.552.461 1.044.712 1.478.754.433.042.775-.087 1.026-.387.195-.234.278-.516.249-.846-.024-.325-.194-.767-.51-1.327l-.525-.943zm-6.122-183.35c-.667.22-1.306.248-1.918.084-.611-.164-1.298-.622-2.06-1.373l-4.824-4.755-1.012 1.026-1.544-1.522 1.012-1.026-1.544-1.522 2.151-2.75 1.828 1.801 1.933-1.961 1.544 1.522-1.933 1.961 4.492 4.429c.661.651 1.223.974 1.683.968.461-.007.914-.235 1.358-.686.209-.211.425-.497.649-.858l1.494 1.473c-.41.759-.781 1.309-1.116 1.648-.795.807-1.526 1.321-2.193 1.541zm-14.2-.52l-.973-.864c.275-.309.364-.69.267-1.142-.097-.452-.389-.894-.877-1.327l-.273-.243-.957 1.078-2.812-2.498 2.498-2.813 2.176 1.934c.878.779 1.439 1.461 1.685 2.044.245.584.324 1.211.237 1.881-.087.669-.411 1.319-.971 1.95zm-1.004 4.032l7.16 5.606-2.138 2.731-6.487-5.078c-.553-.434-.968-.677-1.245-.729a1.355 1.355 0 0 0-.772.064 1.458 1.458 0 0 0-.611.467c-.294.375-.475.864-.544 1.465-.069.601.074 1.422.429 2.464l6.376 4.992-2.138 2.731-10.131-7.932 2.138-2.731 1.91 1.495c-.396-1.103-.522-2.08-.378-2.93.144-.849.457-1.582.939-2.197.626-.799 1.421-1.286 2.385-1.459.964-.173 2 .174 3.107 1.041zm-6.269 15.443c1.171.539 2.126 1.267 2.865 2.183.74.917 1.148 1.941 1.224 3.073.077 1.131-.177 2.333-.761 3.603-.582 1.263-1.327 2.234-2.237 2.912-.909.678-1.953 1.034-3.13 1.068-1.177.035-2.351-.217-3.522-.756-1.163-.536-2.115-1.257-2.854-2.165-.739-.908-1.15-1.931-1.232-3.07-.082-1.138.169-2.343.754-3.613.587-1.278 1.34-2.254 2.257-2.928.916-.675 1.961-1.028 3.132-1.061 1.172-.033 2.34.219 3.504.754zm-4.814 2.668c-.995.088-1.698.579-2.11 1.473-.408.887-.322 1.738.258 2.551.581.813 1.463 1.492 2.649 2.038 1.192.548 2.284.778 3.276.688.991-.09 1.691-.578 2.099-1.465.412-.895.329-1.747-.248-2.559-.576-.812-1.461-1.492-2.653-2.04-1.186-.546-2.276-.774-3.271-.686zm2.263 18.264l-2.214-1.018c.643.779 1.027 1.578 1.152 2.395.124.818-.011 1.657-.408 2.519-.651 1.415-1.686 2.268-3.105 2.557-1.419.29-2.998.034-4.737-.766-1.838-.846-3.169-1.985-3.994-3.417-.824-1.432-.879-2.926-.163-4.482.194-.42.416-.785.665-1.094.25-.31.542-.583.874-.821.333-.237.807-.473 1.423-.708l-6.302-2.9 1.45-3.151 16.809 7.735-1.45 3.151zm-3.281-.001c-.121-.607-.364-1.221-.73-1.844l-4.624-2.128c-.695.202-1.218.453-1.571.754-.353.3-.621.648-.803 1.044-.383.834-.261 1.646.367 2.436.629.789 1.496 1.439 2.601 1.948 1.092.502 2.051.71 2.876.622.826-.087 1.407-.495 1.743-1.224.214-.465.261-1.001.141-1.608zm-8.436 17.4l-1.159 7.824c.87.051 1.575-.042 2.115-.279a3.406 3.406 0 0 0 1.363-1.084c.368-.486.618-1.173.749-2.061.17-1.142.093-2.468-.228-3.98l2.412.357c.239 1.692.251 3.264.036 4.716-.204 1.375-.639 2.541-1.306 3.498-.667.957-1.588 1.633-2.765 2.028-1.176.395-2.405.497-3.688.307-1.19-.176-2.254-.575-3.193-1.197-.939-.622-1.633-1.427-2.083-2.416-.449-.989-.576-2.144-.381-3.465.24-1.621.95-2.839 2.129-3.653 1.179-.815 3.179-1.013 5.999-.595zm-5.025 3.293c-.559.312-.884.772-.974 1.382-.099.664.097 1.251.586 1.76.489.509 1.259.896 2.31 1.161l.668-4.51c-1.167-.172-2.03-.103-2.59.207zm-2.325 15.735c-.025.718.08 1.261.313 1.629.233.368.545.558.936.572.304.01.578-.097.82-.323.242-.218.487-.624.734-1.218l.422-.993c.691-1.641 1.342-2.709 1.953-3.204.619-.486 1.346-.715 2.181-.685 1.086.037 2.02.537 2.803 1.499.784.961 1.144 2.332 1.082 4.112-.053 1.515-.341 3.053-.865 4.613l-2.541-.088c.778-1.693 1.189-3.148 1.231-4.366.023-.648-.096-1.17-.356-1.566-.259-.396-.6-.602-1.022-.616-.367-.013-.68.12-.94.401-.252.28-.506.713-.761 1.298l-.509 1.155c-.526 1.193-1.092 2.068-1.698 2.626-.598.557-1.362.82-2.291.787-1.116-.039-2.022-.506-2.718-1.402-.696-.896-1.012-2.238-.95-4.026.037-1.046.232-2.286.587-3.72l2.436.085c-.532 1.373-.815 2.516-.847 3.43zm13.157 31.653c-.314 1.123-.961 2.065-1.942 2.826a7.823 7.823 0 0 1-3.381 1.505c-1.181.226-2.318.2-3.409-.077a5.676 5.676 0 0 1-2.762-1.595c-.751-.786-1.252-1.834-1.502-3.146-.308-1.61-.039-2.993.805-4.151.845-1.157 2.668-2.004 5.469-2.539l1.484 7.77c.838-.239 1.472-.559 1.905-.961.432-.402.742-.893.929-1.473.188-.58.197-1.31.029-2.193-.217-1.133-.726-2.36-1.527-3.682l2.394-.457c.783 1.518 1.313 2.998 1.588 4.44.261 1.365.234 2.61-.08 3.733zm-8.005-3.46c-1.158.222-1.95.571-2.376 1.049-.426.478-.581 1.02-.465 1.626.126.659.504 1.149 1.134 1.468.629.319 1.484.431 2.563.335l-.856-4.478zm5.752-13.39c.238.35.425.72.561 1.109.136.389.221.806.255 1.25.088 1.145-.198 2.089-.858 2.833-.66.744-1.508 1.156-2.544 1.236-1.262.097-2.355-.338-3.279-1.306-.925-.967-1.476-2.607-1.653-4.921l-.071-.923-1.169.09c-.786.06-1.299.319-1.539.776-.239.457-.333 1.021-.281 1.691.102 1.324.587 2.646 1.456 3.966l-2.383.183c-.713-1.52-1.128-3.055-1.247-4.605-.073-.951-.01-1.81.19-2.577.199-.768.553-1.396 1.06-1.886.507-.489 1.298-.775 2.373-.858l5.678-.436c.694-.053 1.11-.192 1.249-.419.14-.226.201-.444.185-.654a2.82 2.82 0 0 0-.083-.464l1.934-.231c.274.716.433 1.358.477 1.926.049.639-.016 1.198-.195 1.678-.178.48-.601.871-1.267 1.173l.012.152c.521.461.901.867 1.139 1.217zm-2.019.114c-.23-.402-.556-.798-.978-1.189l-2.606.2.063.818c.087 1.13.352 1.956.795 2.478.444.522.966.76 1.565.714.491-.037.881-.236 1.171-.595.29-.359.418-.764.383-1.216a2.85 2.85 0 0 0-.393-1.21zm7.208 26.224l-17.812 5.015-.94-3.339 17.812-5.015.94 3.339zm-5.483 5.725c1.882-.721 3.625-.878 5.229-.47 1.604.408 2.714 1.414 3.329 3.018.162.424.268.836.316 1.234.047.398.04.799-.023 1.202-.063.404-.225.908-.488 1.512l5.538-2.124 1.242 3.239-16.337 6.264-1.242-3.239 2.276-.873c-1.007-.084-1.847-.368-2.52-.852-.673-.485-1.178-1.166-1.514-2.043-.56-1.46-.446-2.799.342-4.017.788-1.218 2.072-2.168 3.852-2.851zm-1.192 7.071c.177.463.521.864 1.032 1.204.51.339 1.126.599 1.847.78l4.753-1.822c.338-.644.523-1.197.555-1.659a3.01 3.01 0 0 0-.186-1.302c-.33-.861-1.004-1.338-2.021-1.431-1.017-.092-2.08.074-3.187.499-1.143.439-1.966.985-2.467 1.639-.502.653-.61 1.351-.326 2.092zm51.302 52.546l3.536 2.283.348 7.884.187.121 3.491-5.404 2.914 1.882-10.04 15.543-2.914-1.882 6.314-9.775-.187-.12-7.104 2.554-2.438-1.575 6.556-2.332-.663-9.179zm14.138 8.837l3.129 1.497-3.556 7.432c-.304.634-.451 1.091-.443 1.373.008.281.085.528.23.74.145.212.341.378.588.496.43.205.946.277 1.547.214.602-.063 1.373-.38 2.314-.952l3.495-7.305 3.129 1.498-5.554 11.606-3.129-1.497 1.047-2.188c-.992.625-1.918.959-2.779 1.002-.861.043-1.643-.104-2.348-.442-.916-.438-1.563-1.109-1.94-2.013-.377-.904-.263-1.99.344-3.258l3.926-8.203zm13.488 9.887c.224-.658.26-1.096.107-1.313-.152-.217-.329-.36-.528-.428a3.032 3.032 0 0 0-.459-.107l.55-1.868c.766.03 1.419.138 1.958.322.607.206 1.095.487 1.466.84.37.353.563.896.578 1.627l.144.049c.629-.297 1.152-.486 1.568-.567a4.718 4.718 0 0 1 2.489.181c1.087.371 1.842 1.006 2.265 1.906.424.9.468 1.841.133 2.825-.409 1.197-1.24 2.03-2.494 2.498-1.253.468-2.978.328-5.174-.421l-.876-.299-.378 1.109c-.255.747-.219 1.32.106 1.72.326.4.807.709 1.443.926 1.257.428 2.663.504 4.219.226l-.772 2.262c-1.678.055-3.252-.168-4.724-.67-.902-.308-1.666-.705-2.293-1.191-.626-.486-1.064-1.059-1.314-1.718s-.201-1.498.147-2.519l1.839-5.39zm3.147 3.624c1.072.366 1.935.448 2.59.246.655-.202 1.08-.587 1.274-1.156.159-.466.13-.903-.085-1.311a1.669 1.669 0 0 0-.967-.831 2.871 2.871 0 0 0-1.267-.117c-.46.054-.952.197-1.478.431l-.844 2.473.777.265zm91.482-6.58a5.172 5.172 0 0 1 1.234-.317 4.365 4.365 0 0 1 1.202.022c.404.062.908.225 1.512.487l-2.127-5.536 3.238-1.244 6.275 16.332-3.238 1.244-.874-2.276c-.084 1.007-.368 1.848-.851 2.521-.484.674-1.165 1.179-2.042 1.516-1.46.561-2.799.447-4.017-.34-1.219-.787-2.17-2.071-2.853-3.85-.723-1.881-.881-3.624-.474-5.228.406-1.605 1.412-2.715 3.015-3.331zm.797 6.956c.439 1.143.986 1.965 1.64 2.466.654.501 1.352.609 2.093.325.463-.178.864-.523 1.203-1.033.339-.511.599-1.127.779-1.848l-1.826-4.752c-.644-.337-1.197-.522-1.659-.553a3.005 3.005 0 0 0-1.301.186c-.862.331-1.338 1.006-1.43 2.023-.091 1.017.076 2.079.501 3.186zm22.321-18.202l10.873 8.373-3.157 1.978-7.27-5.6 1.362 9.301-2.236 1.4-2.555-19.045 2.999-1.878-.016 5.471zm29.66-28.761l6.902 4.499c.589.383 1.023.59 1.303.618.28.029.535-.015.764-.131.23-.116.419-.289.569-.518.26-.399.398-.901.415-1.506.016-.605-.198-1.411-.642-2.418l-6.784-4.422 1.894-2.906 10.78 7.026-1.894 2.906-2.032-1.325c.49 1.066.7 2.028.63 2.887-.07.858-.319 1.615-.745 2.27-.555.851-1.305 1.404-2.25 1.66-.945.255-2.007 0-3.185-.768l-7.619-4.965 1.894-2.907zm11.691-6.711c-1.155-.573-2.087-1.329-2.799-2.267-.712-.938-1.089-1.974-1.132-3.108-.043-1.134.247-2.327.869-3.579.619-1.245 1.393-2.193 2.322-2.844.93-.65 1.983-.975 3.161-.974 1.177 0 2.343.287 3.498.861 1.147.57 2.076 1.32 2.788 2.249.712.93 1.092 1.964 1.14 3.105.048 1.141-.239 2.337-.861 3.59-.626 1.259-1.407 2.212-2.344 2.859-.936.647-1.991.969-3.163.967-1.172-.002-2.332-.289-3.479-.859zm7.044-3.932c.435-.875.374-1.727-.182-2.557-.555-.83-1.418-1.536-2.586-2.116-1.175-.584-2.26-.846-3.254-.786-.994.06-1.708.527-2.143 1.402-.438.881-.38 1.736.172 2.565.552.828 1.416 1.534 2.592 2.119 1.168.58 2.251.841 3.248.783.998-.059 1.715-.529 2.153-1.41zm-1.698-24.049l7.814 2.61c.667.223 1.139.313 1.417.27a1.36 1.36 0 0 0 .707-.32 1.47 1.47 0 0 0 .419-.645c.151-.452.158-.972.021-1.562-.136-.589-.547-1.315-1.23-2.178l-7.681-2.566 1.099-3.29 12.205 4.078-1.1 3.29-2.3-.769c.743.907 1.189 1.785 1.337 2.634.149.848.1 1.643-.148 2.384-.321.964-.908 1.688-1.758 2.175-.85.486-1.942.506-3.276.06l-8.625-2.881 1.099-3.29zm9.758-9.35c-1.259-.276-2.348-.782-3.266-1.518-.919-.737-1.537-1.65-1.855-2.739-.317-1.089-.327-2.317-.028-3.683.297-1.359.817-2.466 1.561-3.323.743-.858 1.685-1.429 2.828-1.715 1.142-.286 2.343-.292 3.602-.016 1.251.274 2.335.775 3.252 1.503.916.728 1.537 1.639 1.861 2.734.325 1.094.337 2.325.039 3.691-.301 1.374-.826 2.488-1.577 3.344-.751.855-1.695 1.424-2.833 1.708-1.137.283-2.332.287-3.584.014zm5.876-5.529c.208-.954-.058-1.766-.799-2.436-.741-.67-1.749-1.144-3.024-1.423-1.282-.28-2.398-.271-3.347.03-.949.3-1.528.927-1.737 1.881-.21.962.053 1.777.791 2.446.737.669 1.747 1.144 3.029 1.424 1.275.279 2.388.269 3.342-.031.953-.299 1.534-.93 1.745-1.891zm-8.535-15.469l12.762 1.642-.443 3.441-12.762-1.643.443-3.44zm17.783 2.288l-.443 3.441-2.871-.37.443-3.44 2.871.369z"/></svg>